<?xml version="1.0" standalone="no"?>
<!DOCTYPE svg PUBLIC "-//W3C//DTD SVG 20010904//EN"
 "http://www.w3.org/TR/2001/REC-SVG-20010904/DTD/svg10.dtd">
<svg version="1.0" xmlns="http://www.w3.org/2000/svg"
 width="2563.000000pt" height="2563.000000pt" viewBox="0 0 2563.000000 2563.000000"
 preserveAspectRatio="xMidYMid meet">
<metadata>
Created by potrace 1.11, written by Peter Selinger 2001-2013
</metadata>
<g transform="translate(0.000000,2563.000000) scale(0.100000,-0.100000)"
fill="#000000" stroke="none">
<path d="M13029 23703 c-3 -7 -525 -413 -640 -498 -35 -26 -559 -430 -664
-512 -44 -34 -91 -71 -105 -81 -14 -11 -117 -90 -230 -177 -113 -88 -250 -193
-305 -234 -55 -42 -102 -78 -105 -82 -3 -3 -95 -74 -205 -159 -110 -84 -227
-174 -260 -200 -60 -47 -754 -581 -875 -674 -36 -27 -94 -72 -130 -100 -77
-60 -253 -195 -324 -250 -28 -22 -78 -60 -111 -86 -33 -25 -121 -93 -195 -150
-74 -57 -182 -140 -239 -185 -57 -44 -115 -89 -130 -100 -14 -11 -204 -157
-421 -324 -217 -167 -501 -386 -630 -485 -129 -99 -237 -183 -240 -186 -3 -3
-32 -25 -65 -50 -33 -25 -66 -50 -75 -57 -8 -7 -71 -55 -140 -108 -69 -53
-134 -104 -145 -113 -11 -10 -77 -60 -145 -112 -69 -51 -127 -96 -130 -100 -3
-3 -50 -39 -105 -80 -55 -41 -109 -83 -120 -92 -11 -9 -126 -98 -255 -197
-300 -231 -847 -653 -1150 -886 -129 -100 -388 -300 -575 -444 -348 -268 -373
-287 -413 -318 -13 -10 -36 -27 -50 -39 -50 -39 -726 -559 -892 -687 -91 -69
-169 -130 -175 -135 -5 -4 -152 -117 -325 -250 -173 -133 -322 -248 -330 -255
-8 -6 -181 -140 -385 -297 -203 -156 -372 -287 -375 -290 -3 -3 -30 -23 -60
-45 -30 -22 -57 -42 -60 -45 -3 -3 -43 -35 -90 -70 -46 -36 -94 -73 -105 -82
-11 -9 -227 -176 -480 -370 -253 -195 -486 -374 -517 -398 l-58 -45 0 -93 0
-93 49 -47 c27 -26 127 -121 222 -212 95 -91 228 -217 294 -281 130 -126 287
-276 376 -360 67 -63 369 -352 444 -424 28 -27 129 -124 225 -215 95 -91 198
-190 230 -220 31 -30 131 -125 221 -212 90 -86 196 -187 235 -225 39 -37 113
-108 165 -157 52 -49 179 -171 283 -270 104 -100 210 -201 236 -226 134 -127
440 -420 690 -660 101 -96 201 -192 224 -214 23 -21 121 -115 220 -210 98 -94
206 -197 240 -229 33 -32 97 -93 141 -135 44 -42 172 -165 284 -272 113 -107
256 -244 319 -305 63 -60 132 -126 152 -145 34 -32 343 -327 450 -430 26 -25
125 -119 220 -210 95 -91 194 -185 219 -210 146 -140 438 -419 466 -445 17
-16 114 -109 216 -207 101 -97 209 -199 239 -228 30 -29 136 -129 234 -223 99
-95 201 -192 227 -217 25 -25 129 -124 229 -220 100 -96 205 -197 234 -223 70
-67 407 -389 541 -518 60 -59 122 -117 136 -130 15 -13 113 -107 219 -209 106
-102 214 -205 240 -230 26 -25 130 -124 231 -221 101 -97 200 -191 219 -209
19 -18 111 -105 203 -194 181 -172 207 -197 487 -466 101 -96 200 -191 220
-210 20 -19 122 -116 225 -215 103 -99 214 -205 246 -235 84 -80 351 -335 424
-405 34 -33 136 -130 226 -217 90 -86 191 -182 225 -215 260 -248 241 -233
286 -233 38 0 55 10 163 92 66 51 125 96 130 100 6 5 57 45 115 89 58 44 114
88 125 97 11 10 36 28 55 42 19 14 42 30 50 37 14 12 357 277 430 333 18 14
99 76 179 138 80 61 177 136 214 165 38 28 77 59 87 67 10 8 77 60 150 115 73
55 140 107 150 115 10 8 70 56 135 105 134 103 273 210 295 228 9 7 33 25 55
42 22 16 47 35 55 42 8 7 146 113 305 236 160 122 319 245 355 273 36 28 254
196 485 374 231 178 448 345 483 372 63 49 118 91 277 213 50 38 97 75 105 82
13 11 612 472 683 526 16 12 41 31 55 43 33 26 178 138 522 401 146 112 272
210 282 218 25 20 355 275 418 322 30 23 163 125 295 227 132 102 300 232 373
288 74 57 160 123 191 148 31 25 72 56 90 70 111 83 487 375 499 386 7 8 17
14 21 14 4 0 16 8 27 18 10 9 39 33 64 52 25 19 50 38 55 43 6 4 87 67 180
138 94 72 184 142 200 155 17 12 86 66 155 119 69 53 139 106 155 119 33 26
247 191 390 301 50 38 102 78 116 89 14 12 40 32 59 46 18 14 134 103 259 199
124 96 273 211 331 255 58 44 128 98 156 120 28 23 116 91 195 151 78 61 178
137 220 170 42 33 90 69 105 80 15 11 73 56 130 100 130 102 260 202 609 470
154 119 332 255 395 304 63 49 192 148 285 220 164 127 354 273 385 298 106
82 303 234 330 253 19 13 41 30 49 38 8 7 39 32 69 54 31 23 63 47 71 54 18
15 201 156 251 194 84 63 83 51 10 121 -36 34 -148 141 -250 239 -102 98 -201
192 -220 210 -19 18 -118 112 -220 210 -102 98 -208 200 -237 226 -28 27 -124
119 -213 204 -89 85 -189 181 -223 214 -34 32 -145 139 -247 236 -102 98 -201
192 -220 210 -19 18 -122 116 -229 219 -315 302 -432 414 -466 446 -48 45
-325 310 -414 395 -43 41 -163 156 -266 255 -104 99 -205 196 -225 215 -20 19
-117 112 -215 205 -98 94 -214 205 -259 248 -45 43 -117 113 -161 154 -44 42
-125 119 -180 172 -87 84 -395 378 -550 526 -327 312 -414 395 -509 486 -61
59 -133 128 -161 154 -45 42 -214 204 -529 506 -61 59 -129 124 -152 145 -52
50 -391 373 -459 439 -29 28 -130 124 -225 215 -95 91 -189 181 -209 200 -187
179 -607 580 -691 660 -30 29 -138 132 -240 230 -102 97 -201 192 -221 211
-20 19 -119 113 -220 211 -101 97 -207 198 -235 225 -58 54 -341 325 -444 423
-65 63 -363 347 -460 440 -26 25 -130 124 -230 220 -275 263 -284 272 -471
450 -95 91 -225 215 -289 276 -63 62 -131 126 -150 144 -19 18 -116 110 -215
205 -99 96 -207 199 -240 230 -33 32 -134 129 -225 215 -91 87 -187 180 -215
206 -27 26 -133 127 -234 223 -174 167 -239 229 -309 294 -16 16 -31 25 -33
20z"/>
</g>
</svg>
